<?xml version="1.0" encoding="utf-8"?>
<!-- Generator: Adobe Illustrator 16.2.0, SVG Export Plug-In . SVG Version: 6.00 Build 0)  -->
<!DOCTYPE svg PUBLIC "-//W3C//DTD SVG 1.1//EN" "http://www.w3.org/Graphics/SVG/1.1/DTD/svg11.dtd">
<svg version="1.1" id="Слой_1" xmlns="http://www.w3.org/2000/svg" xmlns:xlink="http://www.w3.org/1999/xlink" x="0px" y="0px"
	 width="64px" height="64px" viewBox="10.5 10.5 64 64" enable-background="new 10.5 10.5 64 64" xml:space="preserve">
<g>
	<path fill="none" stroke="#00B2F3" stroke-width="2" d="M42.619,11.685L42.619,11.685c17.121,0,31,13.879,31,31l0,0
		c0,17.12-13.879,31-31,31l0,0c-17.121,0-31-13.88-31-31l0,0C11.619,25.564,25.499,11.685,42.619,11.685z"/>
	
		<linearGradient id="SVGID_1_" gradientUnits="userSpaceOnUse" x1="260.2422" y1="-222.5181" x2="334.7162" y2="-217.1169" gradientTransform="matrix(1 0 0 -1 -275.9902 -175.5996)">
		<stop  offset="0" style="stop-color:#C207DD"/>
		<stop  offset="1" style="stop-color:#C207DD;stop-opacity:0"/>
	</linearGradient>
	<path fill="none" stroke="url(#SVGID_1_)" stroke-width="2" d="M42.619,11.685L42.619,11.685c17.121,0,31,13.879,31,31l0,0
		c0,17.12-13.879,31-31,31l0,0c-17.121,0-31-13.88-31-31l0,0C11.619,25.564,25.499,11.685,42.619,11.685z"/>
</g>
</svg>
