<svg width="23" height="24" viewBox="0 0 23 24" fill="none" xmlns="http://www.w3.org/2000/svg">
<path d="M11.6865 17.7034C14.8818 17.7034 17.4756 15.1019 17.4756 11.9144C17.4756 8.71906 14.874 6.12531 11.6865 6.12531C8.49121 6.12531 5.89746 8.72687 5.89746 11.9144C5.89746 15.1097 8.49121 17.7034 11.6865 17.7034ZM11.6865 8.57062C13.5303 8.57062 15.0303 10.0706 15.0303 11.9144C15.0303 13.7581 13.5303 15.2581 11.6865 15.2581C9.84277 15.2581 8.34277 13.7581 8.34277 11.9144C8.34277 10.0706 9.84277 8.57062 11.6865 8.57062Z" fill="white"/>
<path d="M17.6631 7.32062C18.4209 7.32062 19.0303 6.70343 19.0303 5.95343C19.0303 5.19562 18.4131 4.58624 17.6631 4.58624C16.9053 4.58624 16.2959 5.20343 16.2959 5.95343C16.2959 6.70343 16.9053 7.32062 17.6631 7.32062Z" fill="white"/>
<path d="M17.2568 23.1565C20.3818 23.1565 22.9287 20.6096 22.9287 17.4846V6.34402C22.9287 3.21902 20.3818 0.67215 17.2568 0.67215H6.11621C2.99121 0.67215 0.444336 3.21902 0.444336 6.34402V17.4846C0.444336 20.6096 2.99121 23.1565 6.11621 23.1565H17.2568ZM2.88965 17.4846V6.34402C2.88965 4.56277 4.33496 3.11746 6.11621 3.11746H17.2568C19.0381 3.11746 20.4834 4.56277 20.4834 6.34402V17.4846C20.4834 19.2659 19.0381 20.7112 17.2568 20.7112H6.11621C4.33496 20.7112 2.88965 19.2659 2.88965 17.4846Z" fill="white"/>
</svg>
