<svg width="208" height="77" viewBox="0 0 208 77" fill="none" xmlns="http://www.w3.org/2000/svg">
<path d="M35.5132 42.2358C35.4377 42.3498 35.3621 42.4258 35.3244 42.5018C34.72 44.4398 34.1156 46.3778 33.4735 48.2778C33.0202 49.6458 32.6047 51.0138 32.0758 52.3818C31.9247 52.7998 31.5848 53.1038 31.1693 53.6358C31.0559 52.9518 30.9048 52.4198 30.9426 51.8878C31.1315 50.1018 31.3581 48.3158 31.5848 46.5298C31.7736 45.0858 31.9625 43.6038 32.1891 42.0838C31.6603 42.1978 31.1693 42.3498 30.6404 42.4258C29.6583 42.5778 28.9028 42.1598 28.4495 41.2858C28.2229 40.8678 27.9963 40.4878 27.7696 40.0698C27.3163 39.2718 27.203 38.3978 27.3541 37.5238C27.6185 36.2318 27.8452 34.8638 29.2428 34.1798C29.5828 34.0278 29.8849 33.8758 30.2627 33.7618C30.8293 33.6098 31.0937 33.8758 31.3959 34.3698C31.6603 34.7498 32.1514 34.9778 32.5669 35.2438C32.7935 35.3578 33.0957 35.3578 33.4357 35.4338C33.7001 33.9898 33.9645 32.5458 34.1912 31.0638C34.6067 28.3278 34.9844 25.6298 35.3621 22.8938C35.4377 22.3998 35.4377 21.9058 35.4755 21.3738C35.4755 21.2598 35.5132 21.0698 35.5888 21.0318C35.891 20.8418 36.1932 20.6898 36.4953 20.5378C37.5152 20.0818 38.2707 20.4238 39.1395 21.1458C39.7061 21.6398 39.8194 22.3238 40.3105 22.8178C40.386 22.8938 40.386 23.0838 40.386 23.2358C40.386 23.6918 40.386 24.1478 40.5371 24.6038C40.5749 24.3378 40.5749 24.1098 40.6127 23.7678C40.9904 24.2998 40.9149 24.6418 40.4994 25.0218C40.3105 25.1738 40.3105 25.5538 40.2727 25.8198C40.1216 26.7318 40.0461 27.6438 39.895 28.5558C39.6683 29.6198 39.4417 30.6838 39.1017 31.7098C38.724 32.8498 38.2329 33.9518 37.7797 35.0918C37.5152 35.7758 37.2508 36.4598 36.9864 37.1438C37.0242 37.1818 37.0997 37.2198 37.1375 37.2958C38.2707 36.4598 39.4039 35.6238 40.5371 34.7498C41.7081 33.7998 42.8791 32.8498 44.0123 31.8618C45.4099 30.6078 46.7698 29.2778 48.1674 27.9858C48.8851 27.3398 49.5651 26.6558 50.2828 25.9718C50.4338 25.8198 50.6227 25.6678 50.8116 25.5918C51.1893 25.4398 51.416 25.5158 51.4537 26.0098C51.4537 26.6178 51.3782 27.1498 51.0005 27.6438C50.5472 28.2138 50.2828 28.8978 49.8295 29.4298C49.4517 29.8858 48.9607 30.2658 48.5074 30.6838C47.3364 31.7478 46.1276 32.8118 44.9567 33.8758C43.2946 35.3958 41.557 36.8398 39.6683 38.0558C39.2151 38.3218 38.7995 38.6258 38.384 38.9298C38.2707 39.0058 38.1574 39.2718 38.1952 39.3858C38.3463 39.7658 38.5729 40.1458 38.7995 40.4878C39.1395 41.0578 39.4417 41.6658 39.8194 42.1978C39.9705 42.4638 40.2349 42.6918 40.386 42.9578C40.9149 43.7938 41.4437 44.6298 41.9725 45.4658C43.2568 47.4418 44.6167 49.3798 46.241 51.0898C46.6187 51.5078 46.8831 52.0018 47.2231 52.4578C48.4318 54.2438 50.0183 55.5738 52.2092 55.9918C52.4359 56.0298 52.7381 55.9538 52.8891 55.8018C53.2669 55.4598 53.6068 55.0418 53.9468 54.6618C54.1357 54.4338 54.3623 54.2438 54.5512 54.0538C54.6267 54.0918 54.6645 54.1678 54.7401 54.2058C54.2112 54.8518 53.6824 55.4978 53.1536 56.1438C53.1536 56.1818 53.1913 56.2198 53.1913 56.2198C53.3424 56.1058 53.5313 56.0298 53.6824 55.9158C54.2868 55.3078 54.9289 54.7378 55.3822 54.0538C55.7222 53.5978 55.7977 52.9518 55.9488 52.3818C56.591 49.6458 57.1576 46.9098 57.8375 44.1738C58.7441 40.5638 59.7262 36.9918 60.7083 33.3818C61.1994 31.5578 61.8415 29.7718 62.4081 27.9478C62.4459 27.8338 62.4837 27.6818 62.5214 27.4158C62.0682 27.6438 61.6904 27.8338 61.3127 27.9858C60.255 28.4038 59.2351 28.8598 58.1775 29.1638C57.5731 29.3538 56.9309 29.3158 56.2888 29.3538C56.1377 29.3538 55.9488 29.2018 55.7977 29.1258C55.8355 29.0118 55.8355 28.9738 55.8733 28.9358C56.0621 28.8218 56.2132 28.6698 56.4021 28.5558C56.1755 28.4798 55.9488 28.4038 55.7222 28.2898C55.5711 28.2138 55.42 28.1758 55.2689 28.0998C55.3822 27.9858 55.4955 27.8338 55.6089 27.7958C57.2709 27.1118 59.0085 26.6178 60.7083 26.0098C61.0105 25.8958 61.3505 25.8578 61.5393 25.8198C61.766 25.5918 61.9171 25.3258 62.1437 25.2498C63.0503 24.7938 63.9946 24.4518 64.3346 23.3498C64.3724 23.2358 64.4479 23.1218 64.5235 23.0458C64.8256 22.8178 65.1656 22.3998 65.4678 22.3998C65.8078 22.3998 66.1477 22.8178 66.6388 23.1218C67.1676 22.8938 67.8853 22.5898 68.603 22.3238C68.7919 22.2478 69.0563 22.3618 69.2829 22.3618C69.3963 22.3618 69.5474 22.3618 69.6607 22.3238C71.5871 21.7158 73.5136 21.2978 75.5534 21.5258C76.5355 21.6398 77.5176 21.7538 78.4619 22.0198C79.293 22.2478 80.0862 22.7418 80.8795 23.1218C80.955 23.1598 80.9928 23.3118 81.0683 23.3878C81.4083 23.7678 81.295 24.4898 82.0127 24.6038C82.0504 24.6038 82.126 24.7178 82.0882 24.7558C81.9371 25.4398 82.5037 26.1238 82.0127 26.8078C81.8994 26.9598 81.9371 27.3018 82.0505 27.4538C82.3526 27.9098 82.3149 28.4798 81.9371 28.8978C81.8238 29.0118 81.6727 29.1638 81.6349 29.3158C81.5594 29.9238 81.3328 30.4178 80.8417 30.7978C80.6151 30.9878 80.8417 31.3298 80.6151 31.6338C80.124 32.3558 79.6329 33.0778 78.9152 33.6478C78.4242 34.0278 78.0464 34.5218 77.5554 34.9398C76.7999 35.6238 76.0067 36.2318 75.289 36.9158C74.3068 37.7898 73.0603 38.1318 71.8893 38.6258C70.605 39.1578 69.3585 39.7278 68.112 40.2218C67.1676 40.6018 66.2233 41.0198 65.2411 41.3618C64.4857 41.6278 63.6924 41.7418 62.8992 42.0078C62.6725 42.0838 62.4081 42.3118 62.3326 42.5398C61.6526 44.5918 61.0105 46.6818 60.2928 48.7338C59.8395 50.0258 59.3107 51.3178 58.7441 52.5718C58.253 53.5978 57.6486 54.6238 57.0443 55.5738C56.6665 56.1818 55.9488 56.5238 55.3822 56.9418C53.909 58.0438 52.0959 57.7018 50.4716 58.0818C49.5273 58.3098 48.6585 57.7778 48.0163 56.9418C47.7519 56.6378 47.412 56.3338 47.0342 56.1818C45.9388 55.7258 45.2589 54.7758 44.3523 54.0538C43.3702 53.2938 42.728 52.3438 42.237 51.2038C42.1236 50.8998 42.1614 50.5578 42.0859 50.2538C42.0481 50.1018 41.9725 49.9118 41.8592 49.7978C40.9904 48.7338 40.0839 47.7078 39.2151 46.6438C38.0441 45.1998 36.8731 43.7178 35.7021 42.2738C35.7021 42.3878 35.6266 42.3498 35.5132 42.2358ZM62.7481 41.0958C62.7859 41.1338 62.8236 41.1718 62.8992 41.2098C64.0702 40.4878 65.2034 39.7658 66.3744 39.0438C66.9787 38.6638 67.5453 38.2838 68.112 37.9418C69.2074 37.2578 70.3784 36.6878 71.3983 35.8898C73.5136 34.1798 75.2512 32.0518 76.6866 29.6958C77.4421 28.4418 77.9331 27.0738 78.0842 25.5918C78.122 25.3258 78.0464 24.9838 77.8953 24.7558C77.3665 23.8818 75.8178 23.3878 74.8357 23.6538C74.118 23.8438 73.4003 24.0718 72.6826 24.1858C70.7561 24.4898 68.8674 24.9838 67.0543 25.7058C66.601 25.8958 66.3744 26.1618 66.2988 26.5798C66.0722 27.8718 65.8078 29.2018 65.5811 30.4938C65.3922 31.4818 65.2034 32.4698 65.0145 33.4198C64.7879 34.4838 64.4857 35.5098 64.259 36.5738C64.0324 37.5998 63.8057 38.5878 63.2391 39.4998C62.937 39.9938 62.8992 40.5638 62.7481 41.0958ZM29.2428 38.4358C29.2806 38.8918 29.3183 39.4238 29.3939 39.9558C29.4694 40.4878 29.7339 40.6778 30.2249 40.4878C30.9048 40.2598 31.547 40.0318 32.1891 39.7658C32.9446 39.4618 33.1713 38.8918 32.6802 38.2078C32.3025 37.6758 31.8492 37.2198 31.4714 36.6878C31.207 36.3458 30.8671 36.3078 30.4893 36.4218C29.7339 36.6878 29.2428 37.4098 29.2428 38.4358Z" fill="white"/>
<path d="M159.94 27.0738C160.204 26.5418 160.619 26.0858 160.695 25.5538C160.997 23.9198 162.282 23.5778 163.566 23.2738C164.472 23.0458 165.379 22.8938 166.286 22.7038C166.437 22.6658 166.663 22.7038 166.739 22.8178C166.814 22.9318 166.852 23.1978 166.777 23.3118C166.21 24.4518 165.568 25.5918 165.001 26.7318C164.737 27.2258 164.51 27.7198 164.321 28.2138C163.377 30.6838 162.433 33.1918 161.488 35.6998C161.262 36.3458 160.997 36.9918 160.771 37.6378C160.733 37.7898 160.695 37.9418 160.771 38.1318C161.45 37.3718 162.168 36.5738 162.848 35.8138C164.284 34.2178 165.757 32.6218 167.192 31.0258C168.854 29.1638 170.441 27.3018 172.14 25.4778C172.896 24.6798 173.765 23.9958 174.596 23.2358C174.936 22.9318 175.276 22.6278 175.653 22.3618C176.031 22.0958 176.409 21.7158 176.938 21.9438C176.976 21.9438 177.051 21.9438 177.127 21.9058C178.184 21.2218 179.393 21.2218 180.564 21.0318C180.942 20.9558 181.357 20.9938 181.773 21.0318C182.151 21.1078 182.037 21.3358 181.886 21.5638C181.433 22.2098 180.904 22.8558 180.526 23.5778C179.431 25.6298 178.033 27.4538 177.24 29.6958C176.522 31.7858 175.313 33.6858 174.407 35.6998C173.727 37.1818 173.198 38.7398 172.556 40.2218C172.254 40.9058 171.989 41.6278 171.461 42.2358C171.121 42.6538 171.121 43.3378 170.969 43.9078C170.932 44.1358 170.932 44.3638 170.856 44.5538C170.101 46.4918 169.194 48.3918 168.665 50.3678C167.759 53.7498 167.079 57.1698 166.286 60.5518C166.172 61.0078 165.983 61.4258 165.908 61.8818C165.757 63.1358 165.643 64.3518 165.492 65.6058C165.492 65.7578 165.455 65.8718 165.303 66.1378C165.19 65.9478 164.963 65.7958 164.926 65.6058C164.85 65.2638 164.888 64.9218 164.888 64.5798C164.888 62.2618 165.19 59.9438 165.492 57.6638C165.606 56.9418 165.492 56.1818 165.53 55.4218C165.606 54.3958 165.681 53.3698 165.87 52.3818C166.399 49.4178 166.965 46.4158 167.57 43.4518C167.834 42.0458 168.136 40.6398 168.476 39.2718C168.703 38.2838 169.119 37.3718 169.383 36.4218C169.647 35.5098 169.836 34.5598 169.987 33.5718C169.647 33.9518 169.307 34.2938 168.93 34.6738C167.494 36.0418 166.021 37.3718 164.548 38.7398C163.264 39.9558 161.942 41.2098 160.695 42.5018C160.015 43.1858 159.486 43.9838 158.844 44.7058C157.673 46.0358 156.464 47.3658 155.218 48.6198C155.029 48.8098 154.613 48.7718 154.311 48.8858C154.273 48.6198 154.16 48.3538 154.16 48.0878C154.198 46.2638 154.953 44.6298 155.558 42.9578C156.162 41.2098 156.729 39.4238 157.182 37.6378C157.975 34.5598 158.58 31.4438 159.826 28.5178C159.977 27.9478 160.204 27.4538 159.94 27.0738Z" fill="white"/>
<path d="M145.548 46.3018C145.283 46.5298 145.094 46.6438 144.943 46.7958C144.414 47.2518 144.263 48.0878 143.508 48.3158C143.47 48.3158 143.47 48.3918 143.432 48.3918C142.564 49.1898 141.732 50.0638 140.788 50.7858C140.259 51.2038 139.542 51.4318 138.899 51.6978C138.068 52.0398 137.237 52.3058 136.406 52.6478C135.802 52.8758 135.235 53.1418 134.631 53.3318C134.178 53.4458 133.724 53.4458 133.271 53.4458C131.987 53.4458 130.74 53.3698 129.456 53.3318C129.456 53.2558 129.456 53.1798 129.456 53.1038C130.136 53.1038 130.816 53.1038 131.571 53.1038C131.496 52.8378 131.458 52.6858 131.458 52.6478C132.251 52.3058 132.969 51.9638 133.838 51.5458C134.367 51.7358 135.878 51.2038 136.444 50.5958C136.557 50.4818 136.822 50.4058 136.973 50.4438C137.842 50.5578 138.559 50.1778 139.277 49.7218C141.544 48.2018 142.941 45.9978 144.263 43.6798C145.094 42.2358 145.661 40.7158 146.001 39.0818C146.228 37.9418 146.568 36.8398 146.907 35.7378C146.983 35.4718 147.247 35.2818 147.399 35.0158C147.512 34.7878 147.701 34.5598 147.701 34.3318C147.739 33.1538 147.701 31.9758 147.701 30.7978C147.663 29.8098 147.625 28.8218 147.587 27.8338C147.55 27.1878 147.285 26.6558 146.681 26.3898C145.812 26.0098 144.981 25.5918 144.112 25.2878C143.206 24.9458 141.959 25.4398 141.355 26.2378C141.166 26.5038 140.901 26.6938 140.713 26.9598C140.524 27.2258 140.373 27.5298 140.222 27.8338C139.995 28.2138 139.882 28.7078 139.277 28.6318C139.239 28.6318 139.126 28.6318 139.126 28.6698C138.824 29.2398 138.257 29.3158 137.691 29.4678C137.351 29.5818 137.086 30.1138 136.86 30.4558C136.822 30.5318 137.011 30.7598 137.086 30.9878C136.595 31.6718 136.104 32.3938 135.613 33.1158C135.538 33.2678 135.462 33.4198 135.387 33.5718C135.575 33.5718 135.726 33.6098 135.953 33.6098C135.84 33.9898 135.575 34.0658 135.198 34.0278C134.971 33.9898 134.744 34.0658 134.48 34.1038C134.555 34.3318 134.593 34.5218 134.707 34.8638C134.555 34.9018 134.329 34.9398 134.064 34.9778C133.951 35.2058 133.8 35.4718 133.649 35.8138C133.573 35.7758 133.46 35.7378 133.196 35.6238C133.196 35.9658 133.196 36.2698 133.196 36.6498C132.969 36.8018 132.553 36.9918 133.271 37.5238C132.591 37.7898 132.062 38.0178 131.496 38.1698C131.08 38.2838 130.854 38.5498 130.74 38.9298C130.703 39.1198 130.627 39.3098 130.438 39.4618C130.476 39.3098 130.476 39.1578 130.514 38.9678C130.476 38.9678 130.438 38.9298 130.4 38.9298C130.287 39.1958 130.174 39.4998 130.06 39.7658C130.098 39.8038 130.136 39.8798 130.174 39.9178C130.476 39.8038 130.778 39.6898 131.156 39.5758C130.929 40.4118 130.703 41.2858 130.476 42.1598C130.438 42.1598 130.363 42.1218 130.325 42.1218C130.363 41.5518 130.4 40.9818 130.438 40.4118C129.985 40.2978 129.834 40.5258 129.72 40.8298C129.532 41.5138 129.38 42.1978 129.192 42.8818C128.927 43.7558 128.587 44.6298 128.398 45.5418C128.285 46.0358 128.398 46.6058 128.398 47.1378C128.398 47.3658 128.323 47.5558 128.285 47.8218C128.361 47.8598 128.474 47.9358 128.587 48.0118C128.549 48.0498 128.512 48.1258 128.474 48.1638C128.172 47.9358 127.907 47.7078 127.605 47.4798C126.963 48.0878 127.076 49.7218 127.907 50.5958C127.454 50.5578 127.076 50.5578 126.585 50.5198C127.19 51.2038 127.756 51.8498 128.323 52.4578C127.53 52.4578 127.114 52.1538 126.321 51.1658C124.772 49.3038 124.432 47.0998 124.697 44.7818C124.848 43.2998 125.036 41.7798 125.376 40.2978C125.679 39.1198 126.17 37.9798 126.699 36.8778C127.114 35.9658 127.605 35.0918 128.134 34.2558C128.247 34.1038 128.587 34.1038 128.814 34.0278C128.965 33.9898 129.116 33.8758 129.192 33.7618C129.607 33.1538 129.947 32.4698 130.363 31.8618C130.967 30.9878 131.609 30.1518 132.213 29.3158C132.705 28.5938 133.309 27.9098 133.649 27.0738C134.027 26.1618 134.669 25.3638 134.82 24.4518C134.933 23.6158 135.651 22.7798 135.047 21.8678C134.858 21.5638 135.047 21.3358 135.462 21.3738C135.651 21.4118 135.84 21.4118 136.066 21.4498C136.142 21.3358 136.218 21.1838 136.293 20.9938C136.557 21.1078 136.822 21.2218 137.086 21.3738C137.313 21.4878 137.54 21.6018 137.766 21.7158C138.182 21.9438 138.559 22.2478 138.975 22.4378C139.919 22.8938 140.033 23.7678 140.146 24.6418C140.184 24.9078 140.222 25.1358 140.297 25.4018C140.373 25.4018 140.448 25.4018 140.486 25.4018C140.713 25.0218 140.977 24.6798 141.204 24.2998C141.808 23.1218 142.639 22.1338 143.621 21.2598C143.697 21.2218 143.734 21.1078 143.81 21.1078C144.603 20.9558 145.397 20.6518 146.19 20.7278C147.436 20.8418 148.683 21.1078 149.892 21.4498C151.025 21.7918 152.045 22.3618 152.498 23.5778C152.082 23.8818 152.082 23.9958 152.498 24.6038C152.611 24.4518 152.725 24.3378 152.876 24.1478C153.027 24.6418 153.216 25.0978 153.216 25.5918C153.253 26.0858 153.14 26.5418 153.065 27.1118C153.065 27.1118 153.216 27.1498 153.442 27.1498C153.329 27.8718 153.707 28.6698 153.14 29.3918C153.065 29.5058 153.102 29.6958 153.102 29.8478C153.065 30.5698 153.102 31.2918 153.027 32.0138C152.951 32.5078 152.687 32.9258 152.574 33.4198C152.12 35.0918 151.327 36.5738 150.42 38.0178C148.947 40.3738 147.55 42.7678 146.114 45.1238C145.774 45.6558 145.661 45.9978 145.548 46.3018Z" fill="white"/>
<path d="M82.3527 12.9758C82.9949 12.9378 83.4482 12.9378 83.9014 12.8618C84.1281 12.8238 84.3547 12.7478 84.5814 12.6718C85.6013 12.4438 86.5834 12.7098 87.1878 13.5078C87.5277 13.9638 87.7921 14.3818 88.2454 14.7618C88.4343 14.9138 88.5098 15.2558 88.5854 15.5218C88.7365 16.0538 88.8876 16.5858 89.0009 17.1558C89.0764 17.4218 89.0387 17.7258 89.0387 17.8778C89.1898 18.3718 89.3031 18.7518 89.4542 19.0938C89.5297 19.2838 89.6808 19.4358 89.7941 19.6258C90.1341 20.1198 90.5496 20.6138 90.7385 21.1838C90.8896 21.5258 90.6629 21.9818 90.7007 22.3998C90.7385 22.7798 90.8896 23.3118 91.1162 23.4258C91.6828 23.6158 91.6828 24.1098 91.8717 24.4898C92.0228 24.8318 92.0606 25.2498 92.5516 25.3258C92.5894 25.3258 92.6649 25.4018 92.6649 25.4398C92.8538 26.0098 93.0049 26.5418 93.1938 27.1498C94.0626 26.8838 94.1381 26.0098 94.5159 25.3638C95.3091 23.8438 96.0646 22.3238 96.8578 20.8038C97.7644 19.1318 98.7465 17.4978 99.5775 15.8258C100.031 14.9138 100.749 14.6098 101.617 14.6098C102.675 14.6098 103.695 14.9138 104.45 15.7118C104.526 15.7878 104.677 15.9018 104.677 15.9778C104.526 16.4338 104.337 16.9278 104.224 17.3838C104.186 17.5738 104.224 17.8018 104.224 17.8018C104.035 18.1818 103.77 18.4098 103.808 18.6378C103.846 19.4738 103.884 19.4738 103.09 19.5498C103.09 19.7018 103.09 19.8538 103.09 20.0058C102.335 20.3478 101.693 21.2218 101.844 21.6778C101.428 22.0958 100.975 22.5138 100.56 22.8938C100.597 22.9318 100.597 22.9698 100.635 23.0078C100.749 23.0078 100.9 22.9698 101.088 22.9698C101.013 23.1218 100.975 23.2358 100.9 23.2738C100.56 23.5778 100.144 23.8438 100.409 24.4518C100.446 24.5658 100.295 24.8318 100.182 24.9078C99.5398 25.2878 99.1243 25.7818 99.0487 26.5798C99.0109 26.7318 98.6332 26.8078 98.5577 26.9978C98.2177 27.7198 97.9533 28.4418 97.6511 29.1638C97.3867 29.2018 97.1978 29.2778 96.9711 29.3158C97.0089 29.3538 97.0845 29.3918 97.1222 29.3918C96.9334 29.8858 96.669 30.3798 96.5179 30.8738C96.4045 31.2918 96.4423 31.7478 96.4423 32.1658C96.4801 32.5838 96.2157 32.7738 95.9513 33.0018C95.6868 33.1918 95.4602 33.4578 95.2713 33.7238C94.5914 34.6738 94.0248 35.7378 93.1938 36.5358C92.5516 37.1438 92.2494 37.6378 92.4005 38.4738C92.4383 38.7778 91.9095 39.0438 91.5317 39.0058C91.3429 38.9678 91.154 39.1198 91.0407 39.1578C91.3051 39.4618 91.5317 39.7278 91.7584 39.9938C91.6073 40.1078 91.4184 40.2218 91.1918 40.3738C91.3806 41.0578 91.0407 41.5518 90.4741 42.0078C90.1341 42.2738 89.9452 42.7678 89.7564 43.1858C89.3031 44.1738 88.5098 44.7818 87.641 45.3518C86.6967 45.9598 86.5078 47.7078 87.3766 48.4678C86.9989 49.2658 86.6212 50.0638 86.2434 50.8238C85.979 50.7098 85.7146 50.5958 85.4502 50.5198C85.3746 50.7858 85.2991 51.0898 85.2235 51.3558C85.148 51.6598 85.0347 52.0018 84.9591 52.3058C85.0347 52.3438 85.0724 52.3438 85.148 52.3818C85.2613 52.2678 85.4124 52.1918 85.6013 52.0398C85.5635 52.2298 85.5635 52.3818 85.4879 52.4958C84.6569 53.9018 83.7881 55.3078 82.9571 56.7518C82.8815 56.8658 82.8438 56.9798 82.806 57.0558C82.6171 57.5878 82.5038 58.1578 82.2394 58.6898C81.7861 59.6398 81.2951 60.5518 80.7662 61.4638C80.6151 61.6918 80.3129 61.8438 80.0485 61.9958C79.7463 62.1858 79.4064 62.3758 79.0664 62.5658C79.1042 62.0718 79.1797 61.5398 79.2175 61.0838C79.4819 60.4758 79.7463 59.9058 79.973 59.3738C80.1241 59.0698 80.1618 58.6898 80.3507 58.4238C80.9929 57.5878 81.2195 56.5998 81.5217 55.6118C81.8617 54.5478 82.3149 53.5218 82.6927 52.4578C83.1082 51.3558 83.4859 50.2538 83.8637 49.1518C84.1659 48.3158 84.5058 47.4798 84.7702 46.6438C85.0347 45.9218 85.2235 45.1618 85.5257 44.4398C86.319 42.5398 87.15 40.6778 87.9432 38.7778C88.3965 37.7518 88.6987 36.6498 89.1898 35.6238C89.5297 34.9018 90.0208 34.2558 90.4741 33.6098C90.7385 33.2298 90.7385 32.9258 90.5118 32.5078C89.492 30.7218 88.4721 28.9358 87.5277 27.1118C86.7345 25.5918 86.1301 23.9958 85.4124 22.4378C84.468 20.4618 83.4859 18.4858 82.6171 16.4718C82.2394 15.5978 82.1261 14.6098 81.9372 13.6598C82.0128 13.4318 82.2772 13.0898 82.3527 12.9758Z" fill="white"/>
<path d="M106.037 59.1838C106.112 58.4998 106.188 57.8158 106.263 57.1318C106.49 54.8138 107.434 52.6858 108.001 50.4438C108.53 48.3538 109.285 46.3018 109.889 44.2498C110.003 43.8318 110.003 43.4138 110.116 42.9958C110.569 40.7918 111.703 38.8538 112.496 36.7638C113.138 35.0538 113.78 33.3818 114.422 31.6718C114.762 30.7598 115.064 29.8478 115.404 28.9358C116.084 27.2258 116.726 25.5158 117.444 23.8058C117.784 23.0078 118.237 22.2478 118.691 21.3358C118.351 21.3738 118.124 21.3738 117.897 21.4118C115.329 22.0958 112.722 22.7418 110.154 23.5018C107.85 24.1858 105.583 24.9838 103.279 25.7058C102.977 25.7818 102.637 25.7058 102.184 25.7058C102.599 24.8318 103.241 24.6038 103.808 24.3378C104.866 23.8818 105.848 23.2358 107.019 23.2738C107.283 23.2738 107.547 23.1598 107.736 23.0078C109.398 21.9438 111.325 21.4878 113.176 20.9938C115.291 20.4618 117.331 19.7018 119.371 19.0558C122.43 18.0678 125.49 17.1178 128.625 16.2818C131.42 15.5218 134.291 14.8378 137.124 14.1918C139.806 13.6218 142.45 12.9758 145.17 12.6718C148.041 12.3678 150.987 12.4058 153.896 12.2918C154.878 12.2538 155.86 12.2918 156.842 12.3298C157.069 12.3298 157.409 12.4818 157.447 12.5958C157.484 12.8238 157.371 13.1278 157.258 13.3558C157.107 13.6218 156.842 13.8498 156.653 14.1158C156.087 15.0658 155.18 15.6358 154.349 16.2818C154.009 16.5478 153.707 16.8518 153.367 17.1178C153.291 17.0038 153.254 16.9658 153.254 16.9278C153.291 16.0158 153.254 15.9778 152.385 16.0918C150.874 16.3198 149.401 15.9018 147.928 15.9398C147.361 15.9778 146.87 15.9398 146.303 16.2438C145.888 16.5098 145.246 16.4338 144.717 16.5098C143.772 16.6238 142.866 16.7758 141.922 16.8898C141.43 16.9658 140.977 17.0038 140.486 17.0418C140.373 17.0418 140.184 17.0038 140.108 16.8898C139.768 16.2818 139.126 16.4718 138.862 16.7378C137.955 17.6118 136.86 17.4598 135.802 17.6118C135.009 17.7258 134.216 17.9158 133.422 18.0678C132.214 18.2578 131.005 18.4478 129.796 18.5618C127.719 18.7898 125.641 19.0938 123.715 20.0438C123.412 20.1958 123.186 20.4618 122.997 20.7278C121.901 22.3618 120.73 23.9578 119.711 25.6678C118.691 27.4538 117.784 29.3538 116.878 31.2158C115.442 34.2938 114.12 37.4098 112.647 40.4498C111.816 42.1218 111.363 43.9078 110.758 45.6558C110.041 47.7078 109.247 49.7218 108.492 51.7358C108.227 52.4198 108.001 53.1418 107.812 53.8638C107.359 55.4218 106.905 57.0178 106.452 58.5758C106.414 58.7658 106.301 58.9178 106.188 59.1078C106.225 59.2218 106.15 59.1838 106.037 59.1838Z" fill="white"/>
<path d="M169.195 19.1698C169.309 18.9798 169.422 18.7898 169.573 18.5998C171.046 17.0038 172.708 15.6738 174.521 14.4578C175.995 13.4698 177.506 12.4818 178.979 11.4938C179.168 11.3798 179.356 11.2658 179.583 11.1898C179.885 11.0758 180.225 10.8478 180.49 11.2658C180.754 11.6458 180.754 12.0638 180.414 12.4058C179.696 13.0898 179.054 13.8118 178.261 14.3818C176.826 15.4838 175.352 16.5478 173.841 17.5358C173.162 17.9918 172.331 18.2578 171.575 18.5618C170.857 18.8658 170.102 19.0938 169.384 19.3598C169.309 19.3218 169.233 19.2458 169.195 19.1698Z" fill="white"/>
<path d="M129.191 45.5038C129.607 44.8198 129.229 43.9838 130.06 43.5658C130.211 43.4898 130.249 43.0718 130.325 42.8058C130.891 43.4898 129.985 44.9718 129.191 45.5038Z" fill="white"/>
<path d="M131.949 54.0538C132.403 54.0538 132.818 54.0538 133.271 54.0538C133.271 54.1298 133.271 54.2058 133.271 54.2438C132.818 54.2438 132.403 54.2438 131.949 54.2438C131.987 54.1678 131.949 54.0918 131.949 54.0538Z" fill="white"/>
<path d="M130.249 48.4678C130.136 48.0498 130.023 47.6318 129.947 47.2138C130.363 47.5558 130.552 47.9358 130.476 48.3918C130.363 48.3918 130.325 48.4298 130.249 48.4678Z" fill="white"/>
</svg>
