<svg width="74" height="24" viewBox="0 0 74 24" fill="none" xmlns="http://www.w3.org/2000/svg">
<path d="M37.4388 16.58L39.2336 12.2727H39.4387L39.7976 17.7081H43.0794L42.3103 6.42694H39.1823L36.4133 12.8367H36.2594L33.3879 6.42694H30.2599L29.542 17.7081H32.7212L33.0289 12.2727H33.234L35.2851 16.58H37.4388Z" fill="white"/>
<path d="M45.3359 6.42694V17.7081H48.7203V9.29852H52.2585L52.4123 6.42694H45.3359Z" fill="white"/>
<path d="M54.2071 9.29852H57.0786V17.7081H60.463V9.29852H63.6935L63.8986 6.42694H54.002L54.2071 9.29852Z" fill="white"/>
<path d="M73.7944 14.8878C73.7944 14.8878 72.4612 15.0416 70.9228 15.0416C69.0255 15.0416 68.6666 14.4263 68.6666 12.9392V11.1445C68.6666 9.60616 68.9743 9.0421 70.9228 9.0421C72.3073 9.0421 73.6406 9.24722 73.6406 9.24722L73.8457 6.47819C73.8457 6.47819 72.1535 6.2218 70.6664 6.2218C66.718 6.2218 65.2822 7.50376 65.2822 10.683V13.452C65.2822 16.9389 67.0257 17.9132 70.6152 17.9132C72.0509 17.9132 73.9995 17.6568 73.9995 17.6568L73.7944 14.8878Z" fill="white"/>
<path d="M20.6196 0.786316H2.56972C1.33904 0.786316 0.313477 1.81188 0.313477 3.04255V21.0925C0.313477 22.3232 1.33904 23.3487 2.56972 23.3487H20.6196C21.8503 23.3487 22.8759 22.3232 22.8759 21.0925V3.04255C22.8759 1.81188 21.8503 0.786316 20.6196 0.786316ZM21.7478 21.0925C21.7478 21.7078 21.235 22.2206 20.6196 22.2206H2.56972C1.95438 22.2206 1.4416 21.7078 1.4416 21.0925V3.04255C1.4416 2.42721 1.95438 1.91443 2.56972 1.91443H20.6196C21.235 1.91443 21.7478 2.42721 21.7478 3.04255V21.0925Z" fill="white"/>
<path d="M11.5947 19.9643C7.69756 19.9643 5.9541 16.8364 5.9541 13.7084C5.9541 11.606 6.672 9.14464 7.8514 7.14479C9.03079 5.2475 10.4153 4.11938 11.5947 4.11938C12.7741 4.11938 14.1586 5.2475 15.338 7.14479C16.5174 9.09337 17.2353 11.5547 17.2353 13.7084C17.2353 16.8364 15.4918 19.9643 11.5947 19.9643Z" fill="white"/>
</svg>
