<?xml version="1.0" encoding="iso-8859-1"?>
<!-- Generator: Adobe Illustrator 16.2.0, SVG Export Plug-In . SVG Version: 6.00 Build 0)  -->
<!DOCTYPE svg PUBLIC "-//W3C//DTD SVG 1.1//EN" "http://www.w3.org/Graphics/SVG/1.1/DTD/svg11.dtd">
<svg version="1.1" id="&#x421;&#x43B;&#x43E;&#x439;_1"
	 xmlns="http://www.w3.org/2000/svg" xmlns:xlink="http://www.w3.org/1999/xlink" x="0px" y="0px" width="16.007px"
	 height="16.006px" viewBox="0 0 16.007 16.006" style="enable-background:new 0 0 16.007 16.006;" xml:space="preserve">
<path style="fill-rule:evenodd;clip-rule:evenodd;" d="M16.007,14.884l-5.001-5.208c0.625-0.985,0.99-2.164,0.99-3.433
	C11.996,2.794,9.311,0,5.999,0C2.687,0,0,2.794,0,6.243c0,3.45,2.687,6.244,5.999,6.244c1.543,0,2.945-0.611,4.008-1.608
	l4.923,5.126L16.007,14.884z M5.999,11.048c-2.549,0-4.616-2.15-4.616-4.805c0-2.654,2.067-4.804,4.616-4.804
	s4.615,2.15,4.615,4.804C10.614,8.898,8.547,11.048,5.999,11.048z"/>
</svg>
