<svg width="12" height="16" viewBox="0 0 12 16" fill="none" xmlns="http://www.w3.org/2000/svg">
<path d="M4.68505 10.5173C3.95555 10.5173 2.76435 10.5727 2.50579 9.56615C2.29341 8.72585 2.2934 8.05175 2.2934 7.69162C2.2934 7.32225 2.25647 6.74974 2.51502 5.74322C2.77358 4.7367 3.96478 4.7921 4.69428 4.7921C5.42377 4.7921 5.98706 3.67477 5.98706 2.79752C5.98706 1.78177 5.69156 0.239672 4.83279 0.221203C3.97401 0.202735 2.52425 0.40588 1.23147 2.62207C0.0587389 4.62588 0.123378 7.13758 0.123378 7.62699C0.123378 8.11639 -0.0613049 10.4896 1.23147 12.7058C2.52425 14.922 3.97401 15.1343 4.83279 15.1066C5.69156 15.0882 5.98706 13.5461 5.98706 12.5303C5.97782 11.6438 5.41454 10.5173 4.68505 10.5173Z" fill="#00B2F3"/>
<path opacity="0.3" d="M7.63042 7.66451C7.63042 6.86114 7.25182 6.14088 6.66083 5.67917L5.55273 6.78727C5.8667 6.95348 6.08831 7.28591 6.08831 7.66451C6.08831 8.04311 5.87593 8.37554 5.55273 8.54175L6.66083 9.64985C7.25182 9.18814 7.63042 8.46788 7.63042 7.66451Z" fill="#0F9BE1"/>
<path opacity="0.6" d="M9.59622 7.66445C9.59622 6.31627 8.996 5.1066 8.05411 4.28476L6.99219 5.34669C7.66628 5.8915 8.09105 6.7318 8.09105 7.66445C8.09105 8.5971 7.66628 9.42817 6.99219 9.97299L8.05411 11.0349C8.996 10.2223 9.59622 9.01264 9.59622 7.66445Z" fill="#0F9BE1"/>
<path opacity="0.8" d="M10.0585 7.66448C10.0585 9.13271 9.41215 10.4624 8.38716 11.3674L9.46756 12.4478C10.7603 11.2658 11.5729 9.55748 11.5729 7.66448C11.5729 5.77149 10.7603 4.06317 9.45833 2.8812L8.37793 3.9616C9.41215 4.86654 10.0585 6.19626 10.0585 7.66448Z" fill="#0F9BE1"/>
</svg>
