<?xml version="1.0" encoding="iso-8859-1"?>
<!-- Generator: Adobe Illustrator 16.2.0, SVG Export Plug-In . SVG Version: 6.00 Build 0)  -->
<!DOCTYPE svg PUBLIC "-//W3C//DTD SVG 1.1//EN" "http://www.w3.org/Graphics/SVG/1.1/DTD/svg11.dtd">
<svg version="1.1" id="Layer_1" xmlns="http://www.w3.org/2000/svg" xmlns:xlink="http://www.w3.org/1999/xlink" x="0px" y="0px"
	 width="24px" height="24px" viewBox="0 0 24 24" style="enable-background:new 0 0 24 24;" xml:space="preserve">
<path d="M19,14c-1.923,0-3.577,1.104-4.413,2.699l-4.625-1.321C9.972,15.251,10,15.129,10,15c0-0.854-0.235-1.647-0.615-2.352
	l4.512-3.76C14.752,9.573,15.822,10,17,10c2.757,0,5-2.243,5-5s-2.243-5-5-5s-5,2.243-5,5c0,0.855,0.235,1.648,0.615,2.353
	l-4.511,3.759C7.249,10.427,6.179,10,5,10c-2.757,0-5,2.243-5,5s2.243,5,5,5c1.923,0,3.576-1.104,4.412-2.699l4.626,1.322
	C14.028,18.749,14,18.871,14,19c0,2.757,2.243,5,5,5s5-2.243,5-5S21.757,14,19,14z M17,2c1.654,0,3,1.346,3,3s-1.346,3-3,3
	s-3-1.346-3-3S15.346,2,17,2z M5,18c-1.654,0-3-1.346-3-3s1.346-3,3-3s3,1.346,3,3S6.654,18,5,18z M19,22c-1.654,0-3-1.346-3-3
	s1.346-3,3-3s3,1.346,3,3S20.654,22,19,22z"/>
</svg>
